<?xml version="1.0" standalone="no"?>
<!DOCTYPE svg PUBLIC "-//W3C//DTD SVG 20010904//EN"
 "http://www.w3.org/TR/2001/REC-SVG-20010904/DTD/svg10.dtd">
<svg version="1.0" xmlns="http://www.w3.org/2000/svg"
 width="216.000000pt" height="216.000000pt" viewBox="0 0 216.000000 216.000000"
 preserveAspectRatio="xMidYMid meet">
<metadata>
Created by potrace 1.11, written by Peter Selinger 2001-2013
</metadata>
<g transform="translate(0.000000,216.000000) scale(0.100000,-0.100000)"
fill="#000000" stroke="none">
<path d="M334 2128 c-137 -20 -255 -119 -299 -251 -16 -47 -18 -116 -19 -787
-1 -404 2 -753 7 -775 23 -114 105 -218 211 -265 33 -15 68 -28 76 -29 8 -1
353 -3 765 -5 619 -2 755 0 778 11 15 8 31 11 36 9 5 -3 14 1 21 9 7 8 18 15
24 15 12 0 53 32 103 82 28 27 68 93 66 108 -1 3 2 10 7 15 4 6 12 33 16 60 9
62 9 1445 0 1500 -24 145 -140 264 -296 303 -28 7 -1447 7 -1496 0z m1490 -65
c3 -4 16 -8 28 -10 49 -8 127 -67 165 -127 53 -82 52 -72 50 -870 l-2 -741
-27 -55 c-15 -30 -38 -65 -50 -78 -40 -39 -71 -62 -85 -62 -7 0 -13 -4 -13 -9
0 -24 -220 -48 -247 -28 -7 5 -13 5 -13 1 0 -11 -91 -11 -108 0 -7 4 -12 4
-12 -1 0 -10 -491 -10 -508 1 -6 4 -12 4 -12 -1 0 -10 -91 -10 -108 1 -7 4
-12 4 -12 -1 0 -8 -442 -8 -522 0 -128 14 -246 129 -264 255 -6 40 -8 103 -4
112 6 15 5 62 -2 66 -4 3 -3 15 2 28 5 13 6 27 3 30 -8 8 -9 117 -2 122 4 2 3
20 -1 39 -4 20 -4 38 1 41 5 3 7 10 3 15 -5 9 -9 126 -4 139 6 16 5 62 -2 66
-4 3 -3 15 2 28 5 13 6 27 3 30 -8 8 -9 117 -2 122 4 2 3 20 -1 39 -4 20 -4
38 1 41 5 3 7 10 3 15 -5 9 -9 126 -4 139 6 16 5 62 -2 66 -4 3 -3 15 2 28 5
13 6 27 3 30 -8 8 -9 117 -2 122 4 2 3 19 -1 38 -4 19 -6 37 -3 39 2 3 5 29 7
58 3 58 37 133 81 183 15 16 56 44 93 62 l66 33 747 1 c410 0 749 -3 753 -7z"/>
<path d="M863 1784 c4 -7 -6 -11 -26 -12 -41 -1 -57 -5 -84 -20 -13 -7 -23
-10 -23 -6 0 4 -9 -1 -20 -11 -11 -10 -20 -14 -20 -9 0 5 -5 1 -11 -8 -5 -10
-17 -18 -26 -18 -9 0 -14 -3 -11 -6 8 -7 -24 -42 -34 -37 -4 2 -9 -6 -13 -17
-3 -11 -11 -20 -17 -20 -6 0 -8 -3 -5 -7 4 -3 1 -13 -5 -21 -7 -8 -13 -19 -14
-26 -1 -6 -4 -21 -6 -33 -2 -12 -7 -25 -10 -29 -4 -3 -4 -12 -2 -19 3 -7 2
-15 -3 -18 -4 -3 -7 -191 -5 -419 3 -450 3 -458 13 -458 3 0 6 -11 6 -25 0
-14 7 -33 16 -43 8 -9 19 -29 22 -44 4 -16 11 -25 16 -22 5 3 9 -2 9 -10 0 -9
6 -16 13 -16 7 0 18 -9 25 -20 7 -11 19 -20 27 -20 8 0 15 -4 15 -8 0 -7 50
-32 75 -38 6 -1 13 -3 18 -4 4 -1 11 -3 16 -4 5 0 12 -4 15 -7 4 -3 22 -4 41
-2 18 2 36 -1 40 -7 4 -6 11 -7 18 -3 6 3 34 8 61 10 68 4 89 8 104 17 6 4 12
4 12 1 0 -4 7 1 16 9 8 9 20 14 25 11 5 -4 9 -1 9 4 0 6 3 10 8 8 8 -2 32 16
59 45 9 9 21 14 26 11 6 -3 7 -2 4 4 -3 5 5 21 19 36 14 15 22 27 18 27 -3 0
-1 7 6 15 7 8 9 15 5 15 -4 0 -2 7 5 15 6 8 9 19 5 25 -3 5 -1 10 4 10 15 0
14 73 -1 92 -7 8 -23 18 -35 21 -17 4 -24 -1 -32 -26 -6 -16 -11 -37 -11 -46
0 -9 -6 -27 -13 -42 -8 -14 -13 -33 -11 -42 1 -9 -4 -17 -12 -17 -8 0 -13 -3
-12 -8 4 -12 -26 -52 -38 -52 -6 0 -17 -7 -24 -15 -7 -9 -15 -13 -18 -11 -2 3
-14 0 -26 -6 -32 -18 -43 -19 -141 -19 -54 0 -107 6 -132 15 -22 8 -45 11 -49
8 -4 -4 -4 -1 0 6 4 6 3 12 -3 12 -17 0 -79 67 -101 109 -11 23 -18 41 -16 41
3 0 0 15 -5 33 -13 42 -17 97 -6 97 4 0 5 5 1 12 -11 17 -10 68 0 68 6 0 5 5
-1 11 -7 7 -8 21 -3 40 5 16 5 29 1 29 -9 0 -5 55 4 71 4 5 3 9 -2 9 -9 0 -8
82 1 105 3 8 2 15 -2 15 -8 0 -7 83 2 105 3 8 2 15 -2 15 -8 0 -7 83 2 105 3
8 2 15 -2 15 -13 0 3 169 17 180 3 3 7 14 9 25 2 11 9 29 16 40 7 11 13 24 14
29 0 14 31 28 44 20 7 -4 8 -3 4 4 -4 7 3 17 18 24 14 6 26 15 26 20 0 4 3 7
8 7 4 -1 9 0 12 1 21 8 57 12 135 14 87 2 142 -8 157 -29 5 -6 8 -5 8 3 0 14
2 13 61 -41 38 -35 78 -104 72 -124 -3 -7 0 -13 7 -13 6 0 10 -8 9 -17 -4 -47
1 -59 27 -61 31 -2 53 22 54 59 0 37 -28 125 -46 143 -8 8 -15 18 -14 21 1 19
-1 28 -5 23 -3 -3 -23 12 -45 34 -23 21 -48 38 -56 38 -8 0 -12 5 -9 10 3 6
-5 10 -19 10 -14 0 -27 4 -31 9 -3 6 -13 10 -23 10 -17 0 -56 5 -118 15 -17 2
-37 0 -45 -4 -8 -5 -19 -4 -28 3 -9 7 -12 7 -8 1z"/>
<path d="M1525 1782 c-11 -3 -23 -9 -27 -16 -5 -6 -8 -331 -8 -722 l1 -710 36
1 c23 0 37 6 39 15 2 8 5 25 8 37 3 13 0 23 -6 23 -7 0 -6 6 2 15 10 12 10 15
-1 15 -9 0 -10 3 -4 8 13 9 14 82 2 82 -5 0 -4 7 3 15 10 12 10 15 -1 15 -9 0
-10 3 -4 8 13 9 14 82 2 82 -5 0 -4 7 3 15 10 12 10 15 -1 15 -9 0 -10 3 -4 8
13 9 14 82 2 82 -5 0 -4 7 3 15 10 12 10 15 -1 15 -9 0 -10 3 -4 8 13 9 14 82
2 82 -5 0 -4 7 3 15 10 12 10 15 -1 15 -9 0 -10 3 -4 8 13 9 14 82 2 82 -5 0
-4 7 3 15 10 12 10 15 -1 15 -9 0 -10 3 -4 8 13 9 14 82 2 82 -5 0 -4 7 3 15
10 12 10 15 -1 15 -9 0 -10 3 -3 8 13 9 13 64 -1 74 -7 5 -6 8 1 8 5 0 10 18
10 40 -1 22 -5 40 -10 40 -5 0 -3 7 4 15 10 12 10 15 -1 15 -9 0 -10 3 -4 8
13 9 14 82 2 82 -5 0 -4 7 3 15 10 12 10 15 -1 15 -9 0 -10 3 -3 8 13 9 14 42
1 42 -5 0 -4 7 3 15 10 12 10 15 -1 15 -9 0 -10 3 -4 8 13 9 14 82 2 82 -5 0
-4 7 3 15 10 12 10 15 -1 15 -9 0 -10 3 -4 8 12 8 14 62 3 62 -4 0 -4 7 -1 17
4 10 2 14 -4 10 -6 -4 -13 -4 -15 1 -1 4 -12 6 -23 4z"/>
</g>
</svg>
